<svg width="178" height="16" viewBox="0 0 178 16" fill="none" xmlns="http://www.w3.org/2000/svg">
<path d="M29.181 1.333V2.147H25.848V4.732H28.554V5.546H25.848V9H24.847V1.333H29.181ZM30.907 1.993C30.7163 1.993 30.555 1.927 30.423 1.795C30.291 1.663 30.225 1.50167 30.225 1.311C30.225 1.12033 30.291 0.959 30.423 0.827C30.555 0.695 30.7163 0.629 30.907 0.629C31.0903 0.629 31.2443 0.695 31.369 0.827C31.501 0.959 31.567 1.12033 31.567 1.311C31.567 1.50167 31.501 1.663 31.369 1.795C31.2443 1.927 31.0903 1.993 30.907 1.993ZM31.391 2.972V9H30.39V2.972H31.391ZM34.098 3.951C34.274 3.60633 34.5233 3.33867 34.846 3.148C35.176 2.95733 35.5757 2.862 36.045 2.862V3.896H35.781C34.659 3.896 34.098 4.50467 34.098 5.722V9H33.097V2.972H34.098V3.951ZM39.3345 9.099C38.8725 9.099 38.4582 9.022 38.0915 8.868C37.7248 8.70667 37.4352 8.48667 37.2225 8.208C37.0098 7.922 36.8925 7.59567 36.8705 7.229H37.9045C37.9338 7.52967 38.0732 7.77533 38.3225 7.966C38.5792 8.15667 38.9128 8.252 39.3235 8.252C39.7048 8.252 40.0055 8.16767 40.2255 7.999C40.4455 7.83033 40.5555 7.61767 40.5555 7.361C40.5555 7.097 40.4382 6.90267 40.2035 6.778C39.9688 6.646 39.6058 6.51767 39.1145 6.393C38.6672 6.27567 38.3005 6.15833 38.0145 6.041C37.7358 5.91633 37.4938 5.73667 37.2885 5.502C37.0905 5.26 36.9915 4.94467 36.9915 4.556C36.9915 4.248 37.0832 3.96567 37.2665 3.709C37.4498 3.45233 37.7102 3.25067 38.0475 3.104C38.3848 2.95 38.7698 2.873 39.2025 2.873C39.8698 2.873 40.4088 3.04167 40.8195 3.379C41.2302 3.71633 41.4502 4.17833 41.4795 4.765H40.4785C40.4565 4.44967 40.3282 4.19667 40.0935 4.006C39.8662 3.81533 39.5582 3.72 39.1695 3.72C38.8102 3.72 38.5242 3.797 38.3115 3.951C38.0988 4.105 37.9925 4.30667 37.9925 4.556C37.9925 4.754 38.0548 4.919 38.1795 5.051C38.3115 5.17567 38.4728 5.27833 38.6635 5.359C38.8615 5.43233 39.1328 5.51667 39.4775 5.612C39.9102 5.72933 40.2622 5.84667 40.5335 5.964C40.8048 6.074 41.0358 6.24267 41.2265 6.47C41.4245 6.69733 41.5272 6.99433 41.5345 7.361C41.5345 7.691 41.4428 7.988 41.2595 8.252C41.0762 8.516 40.8158 8.725 40.4785 8.879C40.1485 9.02567 39.7672 9.099 39.3345 9.099ZM44.1686 3.797V7.35C44.1686 7.64333 44.2309 7.85233 44.3556 7.977C44.4803 8.09433 44.6966 8.153 45.0046 8.153H45.7416V9H44.8396C44.2823 9 43.8643 8.87167 43.5856 8.615C43.3069 8.35833 43.1676 7.93667 43.1676 7.35V3.797H42.3866V2.972H43.1676V1.454H44.1686V2.972H45.7416V3.797H44.1686ZM54.419 7.295H51.075L50.459 9H49.403L52.175 1.377H53.33L56.091 9H55.035L54.419 7.295ZM54.133 6.481L52.747 2.609L51.361 6.481H54.133ZM57.8161 1.993C57.6255 1.993 57.4641 1.927 57.3321 1.795C57.2001 1.663 57.1341 1.50167 57.1341 1.311C57.1341 1.12033 57.2001 0.959 57.3321 0.827C57.4641 0.695 57.6255 0.629 57.8161 0.629C57.9995 0.629 58.1535 0.695 58.2781 0.827C58.4101 0.959 58.4761 1.12033 58.4761 1.311C58.4761 1.50167 58.4101 1.663 58.2781 1.795C58.1535 1.927 57.9995 1.993 57.8161 1.993ZM58.3001 2.972V9H57.2991V2.972H58.3001ZM59.6322 5.964C59.6322 5.348 59.7568 4.809 60.0062 4.347C60.2555 3.87767 60.5965 3.51467 61.0292 3.258C61.4692 3.00133 61.9605 2.873 62.5032 2.873C62.9725 2.873 63.4088 2.983 63.8122 3.203C64.2155 3.41567 64.5235 3.698 64.7362 4.05V0.86H65.7482V9H64.7362V7.867C64.5382 8.22633 64.2448 8.52333 63.8562 8.758C63.4675 8.98533 63.0128 9.099 62.4922 9.099C61.9568 9.099 61.4692 8.967 61.0292 8.703C60.5965 8.439 60.2555 8.06867 60.0062 7.592C59.7568 7.11533 59.6322 6.57267 59.6322 5.964ZM64.7362 5.975C64.7362 5.52033 64.6445 5.12433 64.4612 4.787C64.2778 4.44967 64.0285 4.193 63.7132 4.017C63.4052 3.83367 63.0642 3.742 62.6902 3.742C62.3162 3.742 61.9752 3.83 61.6672 4.006C61.3592 4.182 61.1135 4.43867 60.9302 4.776C60.7468 5.11333 60.6552 5.50933 60.6552 5.964C60.6552 6.426 60.7468 6.82933 60.9302 7.174C61.1135 7.51133 61.3592 7.77167 61.6672 7.955C61.9752 8.131 62.3162 8.219 62.6902 8.219C63.0642 8.219 63.4052 8.131 63.7132 7.955C64.0285 7.77167 64.2778 7.51133 64.4612 7.174C64.6445 6.82933 64.7362 6.42967 64.7362 5.975ZM74.5304 9L71.3734 5.502V9H70.3724V1.333H71.3734V4.886L74.5414 1.333H75.8064L72.3304 5.172L75.8394 9H74.5304ZM77.4744 1.993C77.2837 1.993 77.1224 1.927 76.9904 1.795C76.8584 1.663 76.7924 1.50167 76.7924 1.311C76.7924 1.12033 76.8584 0.959 76.9904 0.827C77.1224 0.695 77.2837 0.629 77.4744 0.629C77.6577 0.629 77.8117 0.695 77.9364 0.827C78.0684 0.959 78.1344 1.12033 78.1344 1.311C78.1344 1.50167 78.0684 1.663 77.9364 1.795C77.8117 1.927 77.6577 1.993 77.4744 1.993ZM77.9584 2.972V9H76.9574V2.972H77.9584ZM80.8854 3.797V7.35C80.8854 7.64333 80.9477 7.85233 81.0724 7.977C81.197 8.09433 81.4134 8.153 81.7214 8.153H82.4584V9H81.5564C80.999 9 80.581 8.87167 80.3024 8.615C80.0237 8.35833 79.8844 7.93667 79.8844 7.35V3.797H79.1034V2.972H79.8844V1.454H80.8854V2.972H82.4584V3.797H80.8854Z" fill="white"/>
<path d="M101.112 4.692C101.416 4.74 101.692 4.864 101.94 5.064C102.196 5.264 102.396 5.512 102.54 5.808C102.692 6.104 102.768 6.42 102.768 6.756C102.768 7.18 102.66 7.564 102.444 7.908C102.228 8.244 101.912 8.512 101.496 8.712C101.088 8.904 100.604 9 100.044 9H96.924V0.636H99.924C100.492 0.636 100.976 0.732 101.376 0.924C101.776 1.108 102.076 1.36 102.276 1.68C102.476 2 102.576 2.36 102.576 2.76C102.576 3.256 102.44 3.668 102.168 3.996C101.904 4.316 101.552 4.548 101.112 4.692ZM98.016 4.248H99.852C100.364 4.248 100.76 4.128 101.04 3.888C101.32 3.648 101.46 3.316 101.46 2.892C101.46 2.468 101.32 2.136 101.04 1.896C100.76 1.656 100.356 1.536 99.828 1.536H98.016V4.248ZM99.948 8.1C100.492 8.1 100.916 7.972 101.22 7.716C101.524 7.46 101.676 7.104 101.676 6.648C101.676 6.184 101.516 5.82 101.196 5.556C100.876 5.284 100.448 5.148 99.912 5.148H98.016V8.1H99.948ZM103.875 5.688C103.875 5.016 104.011 4.428 104.283 3.924C104.555 3.412 104.927 3.016 105.399 2.736C105.879 2.456 106.411 2.316 106.995 2.316C107.571 2.316 108.071 2.44 108.495 2.688C108.919 2.936 109.235 3.248 109.443 3.624V2.424H110.547V9H109.443V7.776C109.227 8.16 108.903 8.48 108.471 8.736C108.047 8.984 107.551 9.108 106.983 9.108C106.399 9.108 105.871 8.964 105.399 8.676C104.927 8.388 104.555 7.984 104.283 7.464C104.011 6.944 103.875 6.352 103.875 5.688ZM109.443 5.7C109.443 5.204 109.343 4.772 109.143 4.404C108.943 4.036 108.671 3.756 108.327 3.564C107.991 3.364 107.619 3.264 107.211 3.264C106.803 3.264 106.431 3.36 106.095 3.552C105.759 3.744 105.491 4.024 105.291 4.392C105.091 4.76 104.991 5.192 104.991 5.688C104.991 6.192 105.091 6.632 105.291 7.008C105.491 7.376 105.759 7.66 106.095 7.86C106.431 8.052 106.803 8.148 107.211 8.148C107.619 8.148 107.991 8.052 108.327 7.86C108.671 7.66 108.943 7.376 109.143 7.008C109.343 6.632 109.443 6.196 109.443 5.7ZM115.597 2.304C116.397 2.304 117.045 2.548 117.541 3.036C118.037 3.516 118.285 4.212 118.285 5.124V9H117.205V5.28C117.205 4.624 117.041 4.124 116.713 3.78C116.385 3.428 115.937 3.252 115.369 3.252C114.793 3.252 114.333 3.432 113.989 3.792C113.653 4.152 113.485 4.676 113.485 5.364V9H112.393V2.424H113.485V3.36C113.701 3.024 113.993 2.764 114.361 2.58C114.737 2.396 115.149 2.304 115.597 2.304ZM122.781 2.316C123.349 2.316 123.845 2.44 124.269 2.688C124.701 2.936 125.021 3.248 125.229 3.624V2.424H126.333V9.144C126.333 9.744 126.205 10.276 125.949 10.74C125.693 11.212 125.325 11.58 124.845 11.844C124.373 12.108 123.821 12.24 123.189 12.24C122.325 12.24 121.605 12.036 121.029 11.628C120.453 11.22 120.113 10.664 120.009 9.96H121.089C121.209 10.36 121.457 10.68 121.833 10.92C122.209 11.168 122.661 11.292 123.189 11.292C123.789 11.292 124.277 11.104 124.653 10.728C125.037 10.352 125.229 9.824 125.229 9.144V7.764C125.013 8.148 124.693 8.468 124.269 8.724C123.845 8.98 123.349 9.108 122.781 9.108C122.197 9.108 121.665 8.964 121.185 8.676C120.713 8.388 120.341 7.984 120.069 7.464C119.797 6.944 119.661 6.352 119.661 5.688C119.661 5.016 119.797 4.428 120.069 3.924C120.341 3.412 120.713 3.016 121.185 2.736C121.665 2.456 122.197 2.316 122.781 2.316ZM125.229 5.7C125.229 5.204 125.129 4.772 124.929 4.404C124.729 4.036 124.457 3.756 124.113 3.564C123.777 3.364 123.405 3.264 122.997 3.264C122.589 3.264 122.217 3.36 121.881 3.552C121.545 3.744 121.277 4.024 121.077 4.392C120.877 4.76 120.777 5.192 120.777 5.688C120.777 6.192 120.877 6.632 121.077 7.008C121.277 7.376 121.545 7.66 121.881 7.86C122.217 8.052 122.589 8.148 122.997 8.148C123.405 8.148 123.777 8.052 124.113 7.86C124.457 7.66 124.729 7.376 124.929 7.008C125.129 6.632 125.229 6.196 125.229 5.7ZM134.178 5.46C134.178 5.668 134.166 5.888 134.142 6.12H128.886C128.926 6.768 129.146 7.276 129.546 7.644C129.954 8.004 130.446 8.184 131.022 8.184C131.494 8.184 131.886 8.076 132.198 7.86C132.518 7.636 132.742 7.34 132.87 6.972H134.046C133.87 7.604 133.518 8.12 132.99 8.52C132.462 8.912 131.806 9.108 131.022 9.108C130.398 9.108 129.838 8.968 129.342 8.688C128.854 8.408 128.47 8.012 128.19 7.5C127.91 6.98 127.77 6.38 127.77 5.7C127.77 5.02 127.906 4.424 128.178 3.912C128.45 3.4 128.83 3.008 129.318 2.736C129.814 2.456 130.382 2.316 131.022 2.316C131.646 2.316 132.198 2.452 132.678 2.724C133.158 2.996 133.526 3.372 133.782 3.852C134.046 4.324 134.178 4.86 134.178 5.46ZM133.05 5.232C133.05 4.816 132.958 4.46 132.774 4.164C132.59 3.86 132.338 3.632 132.018 3.48C131.706 3.32 131.358 3.24 130.974 3.24C130.422 3.24 129.95 3.416 129.558 3.768C129.174 4.12 128.954 4.608 128.898 5.232H133.05ZM136.711 3.492C136.903 3.116 137.175 2.824 137.527 2.616C137.887 2.408 138.323 2.304 138.835 2.304V3.432H138.547C137.323 3.432 136.711 4.096 136.711 5.424V9H135.619V2.424H136.711V3.492ZM147.483 4.692C147.787 4.74 148.063 4.864 148.311 5.064C148.567 5.264 148.767 5.512 148.911 5.808C149.063 6.104 149.139 6.42 149.139 6.756C149.139 7.18 149.031 7.564 148.815 7.908C148.599 8.244 148.283 8.512 147.867 8.712C147.459 8.904 146.975 9 146.415 9H143.295V0.636H146.295C146.863 0.636 147.347 0.732 147.747 0.924C148.147 1.108 148.447 1.36 148.647 1.68C148.847 2 148.947 2.36 148.947 2.76C148.947 3.256 148.811 3.668 148.539 3.996C148.275 4.316 147.923 4.548 147.483 4.692ZM144.387 4.248H146.223C146.735 4.248 147.131 4.128 147.411 3.888C147.691 3.648 147.831 3.316 147.831 2.892C147.831 2.468 147.691 2.136 147.411 1.896C147.131 1.656 146.727 1.536 146.199 1.536H144.387V4.248ZM146.319 8.1C146.863 8.1 147.287 7.972 147.591 7.716C147.895 7.46 148.047 7.104 148.047 6.648C148.047 6.184 147.887 5.82 147.567 5.556C147.247 5.284 146.819 5.148 146.283 5.148H144.387V8.1H146.319ZM153.522 9.108C152.906 9.108 152.346 8.968 151.842 8.688C151.346 8.408 150.954 8.012 150.666 7.5C150.386 6.98 150.246 6.38 150.246 5.7C150.246 5.028 150.39 4.436 150.678 3.924C150.974 3.404 151.374 3.008 151.878 2.736C152.382 2.456 152.946 2.316 153.57 2.316C154.194 2.316 154.758 2.456 155.262 2.736C155.766 3.008 156.162 3.4 156.45 3.912C156.746 4.424 156.894 5.02 156.894 5.7C156.894 6.38 156.742 6.98 156.438 7.5C156.142 8.012 155.738 8.408 155.226 8.688C154.714 8.968 154.146 9.108 153.522 9.108ZM153.522 8.148C153.914 8.148 154.282 8.056 154.626 7.872C154.97 7.688 155.246 7.412 155.454 7.044C155.67 6.676 155.778 6.228 155.778 5.7C155.778 5.172 155.674 4.724 155.466 4.356C155.258 3.988 154.986 3.716 154.65 3.54C154.314 3.356 153.95 3.264 153.558 3.264C153.158 3.264 152.79 3.356 152.454 3.54C152.126 3.716 151.862 3.988 151.662 4.356C151.462 4.724 151.362 5.172 151.362 5.7C151.362 6.236 151.458 6.688 151.65 7.056C151.85 7.424 152.114 7.7 152.442 7.884C152.77 8.06 153.13 8.148 153.522 8.148ZM159.662 3.324V7.2C159.662 7.52 159.73 7.748 159.866 7.884C160.002 8.012 160.238 8.076 160.574 8.076H161.378V9H160.394C159.786 9 159.33 8.86 159.026 8.58C158.722 8.3 158.57 7.84 158.57 7.2V3.324H157.718V2.424H158.57V0.767999H159.662V2.424H161.378V3.324H159.662ZM164.033 3.324V7.2C164.033 7.52 164.101 7.748 164.237 7.884C164.373 8.012 164.609 8.076 164.945 8.076H165.749V9H164.765C164.157 9 163.701 8.86 163.397 8.58C163.093 8.3 162.941 7.84 162.941 7.2V3.324H162.089V2.424H162.941V0.767999H164.033V2.424H165.749V3.324H164.033ZM168.164 0.12V9H167.072V0.12H168.164ZM176.026 5.46C176.026 5.668 176.014 5.888 175.99 6.12H170.734C170.774 6.768 170.994 7.276 171.394 7.644C171.802 8.004 172.294 8.184 172.87 8.184C173.342 8.184 173.734 8.076 174.046 7.86C174.366 7.636 174.59 7.34 174.718 6.972H175.894C175.718 7.604 175.366 8.12 174.838 8.52C174.31 8.912 173.654 9.108 172.87 9.108C172.246 9.108 171.686 8.968 171.19 8.688C170.702 8.408 170.318 8.012 170.038 7.5C169.758 6.98 169.618 6.38 169.618 5.7C169.618 5.02 169.754 4.424 170.026 3.912C170.298 3.4 170.678 3.008 171.166 2.736C171.662 2.456 172.23 2.316 172.87 2.316C173.494 2.316 174.046 2.452 174.526 2.724C175.006 2.996 175.374 3.372 175.63 3.852C175.894 4.324 176.026 4.86 176.026 5.46ZM174.898 5.232C174.898 4.816 174.806 4.46 174.622 4.164C174.438 3.86 174.186 3.632 173.866 3.48C173.554 3.32 173.206 3.24 172.822 3.24C172.27 3.24 171.798 3.416 171.406 3.768C171.022 4.12 170.802 4.608 170.746 5.232H174.898Z" fill="white"/>
<path d="M13.587 11.4426C13.9434 11.4426 14.2656 11.1641 14.2656 10.7534C14.2656 10.3496 13.9434 10.0711 13.587 10.0711H5.79949C5.51157 10.0711 5.32648 9.86226 5.28535 9.54898L5.17566 8.83889H13.6624C14.7455 8.83889 15.3213 8.17752 15.479 7.07757L15.9726 3.71507C15.9863 3.6176 16 3.49925 16 3.41571C16 2.9632 15.7052 2.64993 15.1637 2.64993H4.30506L4.20908 1.97464C4.11997 1.3272 3.84576 1 3.03685 1H0.733505C0.335904 1 0 1.34112 0 1.75186C0 2.15564 0.335904 2.49677 0.733505 2.49677H2.76949L3.80463 9.69518C3.9623 10.7812 4.53813 11.4426 5.62125 11.4426H13.587ZM6.19023 15C6.88261 15 7.43788 14.4361 7.43788 13.733C7.43788 13.0298 6.88261 12.4659 6.19023 12.4659C5.49786 12.4659 4.94259 13.0298 4.94259 13.733C4.94259 14.4361 5.49786 15 6.19023 15ZM12.4764 15C13.1688 15 13.7241 14.4361 13.7241 13.733C13.7241 13.0298 13.1688 12.4659 12.4764 12.4659C11.7841 12.4659 11.2219 13.0298 11.2219 13.733C11.2219 14.4361 11.7841 15 12.4764 15Z" fill="white"/>
</svg>
