<svg width="104" height="17" viewBox="0 0 104 17" fill="none" xmlns="http://www.w3.org/2000/svg">
<path d="M29.112 5.692C29.416 5.74 29.692 5.864 29.94 6.064C30.196 6.264 30.396 6.512 30.54 6.808C30.692 7.104 30.768 7.42 30.768 7.756C30.768 8.18 30.66 8.564 30.444 8.908C30.228 9.244 29.912 9.512 29.496 9.712C29.088 9.904 28.604 10 28.044 10H24.924V1.636H27.924C28.492 1.636 28.976 1.732 29.376 1.924C29.776 2.108 30.076 2.36 30.276 2.68C30.476 3 30.576 3.36 30.576 3.76C30.576 4.256 30.44 4.668 30.168 4.996C29.904 5.316 29.552 5.548 29.112 5.692ZM26.016 5.248H27.852C28.364 5.248 28.76 5.128 29.04 4.888C29.32 4.648 29.46 4.316 29.46 3.892C29.46 3.468 29.32 3.136 29.04 2.896C28.76 2.656 28.356 2.536 27.828 2.536H26.016V5.248ZM27.948 9.1C28.492 9.1 28.916 8.972 29.22 8.716C29.524 8.46 29.676 8.104 29.676 7.648C29.676 7.184 29.516 6.82 29.196 6.556C28.876 6.284 28.448 6.148 27.912 6.148H26.016V9.1H27.948ZM33.3754 4.492C33.5674 4.116 33.8394 3.824 34.1914 3.616C34.5514 3.408 34.9874 3.304 35.4994 3.304V4.432H35.2114C33.9874 4.432 33.3754 5.096 33.3754 6.424V10H32.2834V3.424H33.3754V4.492ZM37.3239 2.356C37.1159 2.356 36.9399 2.284 36.7959 2.14C36.6519 1.996 36.5799 1.82 36.5799 1.612C36.5799 1.404 36.6519 1.228 36.7959 1.084C36.9399 0.94 37.1159 0.868 37.3239 0.868C37.5239 0.868 37.6919 0.94 37.8279 1.084C37.9719 1.228 38.0439 1.404 38.0439 1.612C38.0439 1.82 37.9719 1.996 37.8279 2.14C37.6919 2.284 37.5239 2.356 37.3239 2.356ZM37.8519 3.424V10H36.7599V3.424H37.8519ZM39.3051 6.688C39.3051 6.016 39.4411 5.428 39.7131 4.924C39.9851 4.412 40.3571 4.016 40.8291 3.736C41.3091 3.456 41.8411 3.316 42.4251 3.316C43.0011 3.316 43.5011 3.44 43.9251 3.688C44.3491 3.936 44.6651 4.248 44.8731 4.624V3.424H45.9771V10H44.8731V8.776C44.6571 9.16 44.3331 9.48 43.9011 9.736C43.4771 9.984 42.9811 10.108 42.4131 10.108C41.8291 10.108 41.3011 9.964 40.8291 9.676C40.3571 9.388 39.9851 8.984 39.7131 8.464C39.4411 7.944 39.3051 7.352 39.3051 6.688ZM44.8731 6.7C44.8731 6.204 44.7731 5.772 44.5731 5.404C44.3731 5.036 44.1011 4.756 43.7571 4.564C43.4211 4.364 43.0491 4.264 42.6411 4.264C42.2331 4.264 41.8611 4.36 41.5251 4.552C41.1891 4.744 40.9211 5.024 40.7211 5.392C40.5211 5.76 40.4211 6.192 40.4211 6.688C40.4211 7.192 40.5211 7.632 40.7211 8.008C40.9211 8.376 41.1891 8.66 41.5251 8.86C41.8611 9.052 42.2331 9.148 42.6411 9.148C43.0491 9.148 43.4211 9.052 43.7571 8.86C44.1011 8.66 44.3731 8.376 44.5731 8.008C44.7731 7.632 44.8731 7.196 44.8731 6.7ZM51.0264 3.304C51.8264 3.304 52.4744 3.548 52.9704 4.036C53.4664 4.516 53.7144 5.212 53.7144 6.124V10H52.6344V6.28C52.6344 5.624 52.4704 5.124 52.1424 4.78C51.8144 4.428 51.3664 4.252 50.7984 4.252C50.2224 4.252 49.7624 4.432 49.4184 4.792C49.0824 5.152 48.9144 5.676 48.9144 6.364V10H47.8224V3.424H48.9144V4.36C49.1304 4.024 49.4224 3.764 49.7904 3.58C50.1664 3.396 50.5784 3.304 51.0264 3.304ZM61.3494 10.084C60.7974 10.084 60.3014 9.988 59.8614 9.796C59.4294 9.596 59.0894 9.324 58.8414 8.98C58.5934 8.628 58.4654 8.224 58.4574 7.768H59.6214C59.6614 8.16 59.8214 8.492 60.1014 8.764C60.3894 9.028 60.8054 9.16 61.3494 9.16C61.8694 9.16 62.2774 9.032 62.5734 8.776C62.8774 8.512 63.0294 8.176 63.0294 7.768C63.0294 7.448 62.9414 7.188 62.7654 6.988C62.5894 6.788 62.3694 6.636 62.1054 6.532C61.8414 6.428 61.4854 6.316 61.0374 6.196C60.4854 6.052 60.0414 5.908 59.7054 5.764C59.3774 5.62 59.0934 5.396 58.8534 5.092C58.6214 4.78 58.5054 4.364 58.5054 3.844C58.5054 3.388 58.6214 2.984 58.8534 2.632C59.0854 2.28 59.4094 2.008 59.8254 1.816C60.2494 1.624 60.7334 1.528 61.2774 1.528C62.0614 1.528 62.7014 1.724 63.1974 2.116C63.7014 2.508 63.9854 3.028 64.0494 3.676H62.8494C62.8094 3.356 62.6414 3.076 62.3454 2.836C62.0494 2.588 61.6574 2.464 61.1694 2.464C60.7134 2.464 60.3414 2.584 60.0534 2.824C59.7654 3.056 59.6214 3.384 59.6214 3.808C59.6214 4.112 59.7054 4.36 59.8734 4.552C60.0494 4.744 60.2614 4.892 60.5094 4.996C60.7654 5.092 61.1214 5.204 61.5774 5.332C62.1294 5.484 62.5734 5.636 62.9094 5.788C63.2454 5.932 63.5334 6.16 63.7734 6.472C64.0134 6.776 64.1334 7.192 64.1334 7.72C64.1334 8.128 64.0254 8.512 63.8094 8.872C63.5934 9.232 63.2734 9.524 62.8494 9.748C62.4254 9.972 61.9254 10.084 61.3494 10.084ZM65.3324 6.7C65.3324 6.02 65.4684 5.428 65.7404 4.924C66.0124 4.412 66.3884 4.016 66.8684 3.736C67.3564 3.456 67.9124 3.316 68.5364 3.316C69.3444 3.316 70.0084 3.512 70.5284 3.904C71.0564 4.296 71.4044 4.84 71.5724 5.536H70.3964C70.2844 5.136 70.0644 4.82 69.7364 4.588C69.4164 4.356 69.0164 4.24 68.5364 4.24C67.9124 4.24 67.4084 4.456 67.0244 4.888C66.6404 5.312 66.4484 5.916 66.4484 6.7C66.4484 7.492 66.6404 8.104 67.0244 8.536C67.4084 8.968 67.9124 9.184 68.5364 9.184C69.0164 9.184 69.4164 9.072 69.7364 8.848C70.0564 8.624 70.2764 8.304 70.3964 7.888H71.5724C71.3964 8.56 71.0444 9.1 70.5164 9.508C69.9884 9.908 69.3284 10.108 68.5364 10.108C67.9124 10.108 67.3564 9.968 66.8684 9.688C66.3884 9.408 66.0124 9.012 65.7404 8.5C65.4684 7.988 65.3324 7.388 65.3324 6.7ZM76.2935 3.304C76.7895 3.304 77.2375 3.412 77.6375 3.628C78.0375 3.836 78.3495 4.152 78.5735 4.576C78.8055 5 78.9215 5.516 78.9215 6.124V10H77.8415V6.28C77.8415 5.624 77.6775 5.124 77.3495 4.78C77.0215 4.428 76.5735 4.252 76.0055 4.252C75.4295 4.252 74.9695 4.432 74.6255 4.792C74.2895 5.152 74.1215 5.676 74.1215 6.364V10H73.0295V1.12H74.1215V4.36C74.3375 4.024 74.6335 3.764 75.0095 3.58C75.3935 3.396 75.8215 3.304 76.2935 3.304ZM86.5373 3.424V10H85.4453V9.028C85.2373 9.364 84.9453 9.628 84.5693 9.82C84.2013 10.004 83.7933 10.096 83.3453 10.096C82.8333 10.096 82.3733 9.992 81.9653 9.784C81.5573 9.568 81.2333 9.248 80.9933 8.824C80.7613 8.4 80.6453 7.884 80.6453 7.276V3.424H81.7253V7.132C81.7253 7.78 81.8893 8.28 82.2173 8.632C82.5453 8.976 82.9933 9.148 83.5613 9.148C84.1453 9.148 84.6053 8.968 84.9413 8.608C85.2773 8.248 85.4453 7.724 85.4453 7.036V3.424H86.5373ZM89.473 1.12V10H88.381V1.12H89.473ZM92.6662 4.324V8.2C92.6662 8.52 92.7342 8.748 92.8702 8.884C93.0062 9.012 93.2422 9.076 93.5782 9.076H94.3822V10H93.3982C92.7902 10 92.3342 9.86 92.0302 9.58C91.7262 9.3 91.5742 8.84 91.5742 8.2V4.324H90.7222V3.424H91.5742V1.768H92.6662V3.424H94.3822V4.324H92.6662ZM96.5213 9.1H99.7493V10H95.2733V9.1L98.4653 4.312H95.2973V3.424H99.7253V4.312L96.5213 9.1Z" fill="white"/>
<path d="M13.822 15.3332C15.2461 15.3332 16 14.5793 16 13.156V6.32547C16 4.90218 15.2461 4.14179 13.822 4.14179H12.1788C11.6826 4.14179 11.5087 4.0573 11.1865 3.72585L10.6774 3.19293C10.3359 2.83548 9.98792 2.6665 9.33709 2.6665H6.63713C5.98631 2.6665 5.63834 2.83548 5.29682 3.19293L4.78776 3.72585C4.46557 4.0573 4.29158 4.14179 3.78896 4.14179H2.18445C0.760371 4.14179 0 4.90218 0 6.32547V13.156C0 14.5793 0.760371 15.3332 2.18445 15.3332H13.822ZM8.00322 13.221C6.08941 13.221 4.54934 11.6742 4.54934 9.73098C4.54934 7.79426 6.08941 6.24099 8.00322 6.24099C9.91704 6.24099 11.4507 7.79426 11.4507 9.73098C11.4507 11.6742 9.91704 13.221 8.00322 13.221ZM12.7394 8.2297C12.2561 8.2297 11.8566 7.83975 11.8566 7.34583C11.8566 6.8714 12.2626 6.46195 12.7394 6.46195C13.2098 6.46195 13.6158 6.8714 13.6158 7.34583C13.6158 7.83326 13.2163 8.2232 12.7394 8.2297ZM8.00322 11.9277C9.20822 11.9277 10.1748 10.9528 10.1748 9.73098C10.1748 8.51566 9.20822 7.5343 8.00322 7.5343C6.79823 7.5343 5.83166 8.51566 5.83166 9.73098C5.83166 10.9528 6.80467 11.9277 8.00322 11.9277Z" fill="white"/>
</svg>
