<svg width="84" height="17" viewBox="0 0 84 17" fill="none" xmlns="http://www.w3.org/2000/svg">
<path d="M26.016 9.112H28.944V10H24.924V1.636H26.016V9.112ZM36.1037 6.46C36.1037 6.668 36.0917 6.888 36.0677 7.12H30.8117C30.8517 7.768 31.0717 8.276 31.4717 8.644C31.8797 9.004 32.3717 9.184 32.9477 9.184C33.4197 9.184 33.8117 9.076 34.1237 8.86C34.4437 8.636 34.6677 8.34 34.7957 7.972H35.9717C35.7957 8.604 35.4437 9.12 34.9157 9.52C34.3877 9.912 33.7317 10.108 32.9477 10.108C32.3237 10.108 31.7637 9.968 31.2677 9.688C30.7797 9.408 30.3957 9.012 30.1157 8.5C29.8357 7.98 29.6957 7.38 29.6957 6.7C29.6957 6.02 29.8317 5.424 30.1037 4.912C30.3757 4.4 30.7557 4.008 31.2437 3.736C31.7397 3.456 32.3077 3.316 32.9477 3.316C33.5717 3.316 34.1237 3.452 34.6037 3.724C35.0837 3.996 35.4517 4.372 35.7077 4.852C35.9717 5.324 36.1037 5.86 36.1037 6.46ZM34.9757 6.232C34.9757 5.816 34.8837 5.46 34.6997 5.164C34.5157 4.86 34.2637 4.632 33.9437 4.48C33.6317 4.32 33.2837 4.24 32.8997 4.24C32.3477 4.24 31.8757 4.416 31.4837 4.768C31.0997 5.12 30.8797 5.608 30.8237 6.232H34.9757ZM37.1371 6.688C37.1371 6.016 37.2731 5.428 37.5451 4.924C37.8171 4.412 38.1891 4.016 38.6611 3.736C39.1411 3.456 39.6731 3.316 40.2571 3.316C40.8331 3.316 41.3331 3.44 41.7571 3.688C42.1811 3.936 42.4971 4.248 42.7051 4.624V3.424H43.8091V10H42.7051V8.776C42.4891 9.16 42.1651 9.48 41.7331 9.736C41.3091 9.984 40.8131 10.108 40.2451 10.108C39.6611 10.108 39.1331 9.964 38.6611 9.676C38.1891 9.388 37.8171 8.984 37.5451 8.464C37.2731 7.944 37.1371 7.352 37.1371 6.688ZM42.7051 6.7C42.7051 6.204 42.6051 5.772 42.4051 5.404C42.2051 5.036 41.9331 4.756 41.5891 4.564C41.2531 4.364 40.8811 4.264 40.4731 4.264C40.0651 4.264 39.6931 4.36 39.3571 4.552C39.0211 4.744 38.7531 5.024 38.5531 5.392C38.3531 5.76 38.2531 6.192 38.2531 6.688C38.2531 7.192 38.3531 7.632 38.5531 8.008C38.7531 8.376 39.0211 8.66 39.3571 8.86C39.6931 9.052 40.0651 9.148 40.4731 9.148C40.8811 9.148 41.2531 9.052 41.5891 8.86C41.9331 8.66 42.2051 8.376 42.4051 8.008C42.6051 7.632 42.7051 7.196 42.7051 6.7ZM48.9185 3.304C49.4145 3.304 49.8625 3.412 50.2625 3.628C50.6625 3.836 50.9745 4.152 51.1985 4.576C51.4305 5 51.5465 5.516 51.5465 6.124V10H50.4665V6.28C50.4665 5.624 50.3025 5.124 49.9745 4.78C49.6465 4.428 49.1985 4.252 48.6305 4.252C48.0545 4.252 47.5945 4.432 47.2505 4.792C46.9145 5.152 46.7465 5.676 46.7465 6.364V10H45.6545V1.12H46.7465V4.36C46.9625 4.024 47.2585 3.764 47.6345 3.58C48.0185 3.396 48.4465 3.304 48.9185 3.304ZM59.1815 10.084C58.6295 10.084 58.1335 9.988 57.6935 9.796C57.2615 9.596 56.9215 9.324 56.6735 8.98C56.4255 8.628 56.2975 8.224 56.2895 7.768H57.4535C57.4935 8.16 57.6535 8.492 57.9335 8.764C58.2215 9.028 58.6375 9.16 59.1815 9.16C59.7015 9.16 60.1095 9.032 60.4055 8.776C60.7095 8.512 60.8615 8.176 60.8615 7.768C60.8615 7.448 60.7735 7.188 60.5975 6.988C60.4215 6.788 60.2015 6.636 59.9375 6.532C59.6735 6.428 59.3175 6.316 58.8695 6.196C58.3175 6.052 57.8735 5.908 57.5375 5.764C57.2095 5.62 56.9255 5.396 56.6855 5.092C56.4535 4.78 56.3375 4.364 56.3375 3.844C56.3375 3.388 56.4535 2.984 56.6855 2.632C56.9175 2.28 57.2415 2.008 57.6575 1.816C58.0815 1.624 58.5655 1.528 59.1095 1.528C59.8935 1.528 60.5335 1.724 61.0295 2.116C61.5335 2.508 61.8175 3.028 61.8815 3.676H60.6815C60.6415 3.356 60.4735 3.076 60.1775 2.836C59.8815 2.588 59.4895 2.464 59.0015 2.464C58.5455 2.464 58.1735 2.584 57.8855 2.824C57.5975 3.056 57.4535 3.384 57.4535 3.808C57.4535 4.112 57.5375 4.36 57.7055 4.552C57.8815 4.744 58.0935 4.892 58.3415 4.996C58.5975 5.092 58.9535 5.204 59.4095 5.332C59.9615 5.484 60.4055 5.636 60.7415 5.788C61.0775 5.932 61.3655 6.16 61.6055 6.472C61.8455 6.776 61.9655 7.192 61.9655 7.72C61.9655 8.128 61.8575 8.512 61.6415 8.872C61.4255 9.232 61.1055 9.524 60.6815 9.748C60.2575 9.972 59.7575 10.084 59.1815 10.084ZM64.9044 4.324V8.2C64.9044 8.52 64.9724 8.748 65.1084 8.884C65.2444 9.012 65.4804 9.076 65.8164 9.076H66.6204V10H65.6364C65.0284 10 64.5724 9.86 64.2684 9.58C63.9644 9.3 63.8124 8.84 63.8124 8.2V4.324H62.9604V3.424H63.8124V1.768H64.9044V3.424H66.6204V4.324H64.9044ZM70.8115 10.108C70.1955 10.108 69.6355 9.968 69.1315 9.688C68.6355 9.408 68.2435 9.012 67.9555 8.5C67.6755 7.98 67.5355 7.38 67.5355 6.7C67.5355 6.028 67.6795 5.436 67.9675 4.924C68.2635 4.404 68.6635 4.008 69.1675 3.736C69.6715 3.456 70.2355 3.316 70.8595 3.316C71.4835 3.316 72.0475 3.456 72.5515 3.736C73.0555 4.008 73.4515 4.4 73.7395 4.912C74.0355 5.424 74.1835 6.02 74.1835 6.7C74.1835 7.38 74.0315 7.98 73.7275 8.5C73.4315 9.012 73.0275 9.408 72.5155 9.688C72.0035 9.968 71.4355 10.108 70.8115 10.108ZM70.8115 9.148C71.2035 9.148 71.5715 9.056 71.9155 8.872C72.2595 8.688 72.5355 8.412 72.7435 8.044C72.9595 7.676 73.0675 7.228 73.0675 6.7C73.0675 6.172 72.9635 5.724 72.7555 5.356C72.5475 4.988 72.2755 4.716 71.9395 4.54C71.6035 4.356 71.2395 4.264 70.8475 4.264C70.4475 4.264 70.0795 4.356 69.7435 4.54C69.4155 4.716 69.1515 4.988 68.9515 5.356C68.7515 5.724 68.6515 6.172 68.6515 6.7C68.6515 7.236 68.7475 7.688 68.9395 8.056C69.1395 8.424 69.4035 8.7 69.7315 8.884C70.0595 9.06 70.4195 9.148 70.8115 9.148ZM78.2953 4.324H76.9153V10H75.8233V4.324H74.9713V3.424H75.8233V2.956C75.8233 2.22 76.0113 1.684 76.3873 1.348C76.7713 1.004 77.3833 0.831999 78.2233 0.831999V1.744C77.7433 1.744 77.4033 1.84 77.2033 2.032C77.0113 2.216 76.9153 2.524 76.9153 2.956V3.424H78.2953V4.324ZM82.2445 4.324H80.8645V10H79.7725V4.324H78.9205V3.424H79.7725V2.956C79.7725 2.22 79.9605 1.684 80.3365 1.348C80.7205 1.004 81.3325 0.831999 82.1725 0.831999V1.744C81.6925 1.744 81.3525 1.84 81.1525 2.032C80.9605 2.216 80.8645 2.524 80.8645 2.956V3.424H82.2445V4.324Z" fill="white"/>
<g clip-path="url(#clip0_1_259)">
<path d="M8.00429 8.77521C9.91658 8.77521 11.5087 7.04738 11.5087 4.83471C11.5087 2.67493 9.90792 1 8.00429 1C6.10065 1 4.48255 2.70138 4.49117 4.85234C4.49117 7.04738 6.09199 8.77521 8.00429 8.77521ZM13.7239 17C14.7276 17 15.3333 16.5063 15.3333 15.6953C15.3333 13.4298 12.4865 10.3267 7.99563 10.3267C3.51343 10.3267 0.666626 13.4298 0.666626 15.6953C0.666626 16.5063 1.27233 17 2.27607 17H13.7239Z" fill="white"/>
</g>
<defs>
<clipPath id="clip0_1_259">
<rect width="16" height="16" fill="white" transform="translate(0 1)"/>
</clipPath>
</defs>
</svg>
