<svg width="145" height="17" viewBox="0 0 145 17" fill="none" xmlns="http://www.w3.org/2000/svg">
<path d="M24.516 5.812C24.516 4.996 24.7 4.264 25.068 3.616C25.436 2.96 25.936 2.448 26.568 2.08C27.208 1.712 27.916 1.528 28.692 1.528C29.604 1.528 30.4 1.748 31.08 2.188C31.76 2.628 32.256 3.252 32.568 4.06H31.26C31.028 3.556 30.692 3.168 30.252 2.896C29.82 2.624 29.3 2.488 28.692 2.488C28.108 2.488 27.584 2.624 27.12 2.896C26.656 3.168 26.292 3.556 26.028 4.06C25.764 4.556 25.632 5.14 25.632 5.812C25.632 6.476 25.764 7.06 26.028 7.564C26.292 8.06 26.656 8.444 27.12 8.716C27.584 8.988 28.108 9.124 28.692 9.124C29.3 9.124 29.82 8.992 30.252 8.728C30.692 8.456 31.028 8.068 31.26 7.564H32.568C32.256 8.364 31.76 8.984 31.08 9.424C30.4 9.856 29.604 10.072 28.692 10.072C27.916 10.072 27.208 9.892 26.568 9.532C25.936 9.164 25.436 8.656 25.068 8.008C24.7 7.36 24.516 6.628 24.516 5.812ZM33.7855 6.688C33.7855 6.016 33.9215 5.428 34.1935 4.924C34.4655 4.412 34.8375 4.016 35.3095 3.736C35.7895 3.456 36.3215 3.316 36.9055 3.316C37.4815 3.316 37.9815 3.44 38.4055 3.688C38.8295 3.936 39.1455 4.248 39.3535 4.624V3.424H40.4575V10H39.3535V8.776C39.1375 9.16 38.8135 9.48 38.3815 9.736C37.9575 9.984 37.4615 10.108 36.8935 10.108C36.3095 10.108 35.7815 9.964 35.3095 9.676C34.8375 9.388 34.4655 8.984 34.1935 8.464C33.9215 7.944 33.7855 7.352 33.7855 6.688ZM39.3535 6.7C39.3535 6.204 39.2535 5.772 39.0535 5.404C38.8535 5.036 38.5815 4.756 38.2375 4.564C37.9015 4.364 37.5295 4.264 37.1215 4.264C36.7135 4.264 36.3415 4.36 36.0055 4.552C35.6695 4.744 35.4015 5.024 35.2015 5.392C35.0015 5.76 34.9015 6.192 34.9015 6.688C34.9015 7.192 35.0015 7.632 35.2015 8.008C35.4015 8.376 35.6695 8.66 36.0055 8.86C36.3415 9.052 36.7135 9.148 37.1215 9.148C37.5295 9.148 37.9015 9.052 38.2375 8.86C38.5815 8.66 38.8535 8.376 39.0535 8.008C39.2535 7.632 39.3535 7.196 39.3535 6.7ZM43.6349 4.324V8.2C43.6349 8.52 43.7029 8.748 43.8389 8.884C43.9749 9.012 44.2109 9.076 44.5469 9.076H45.3509V10H44.3669C43.7589 10 43.3029 9.86 42.9989 9.58C42.6949 9.3 42.5429 8.84 42.5429 8.2V4.324H41.6909V3.424H42.5429V1.768H43.6349V3.424H45.3509V4.324H43.6349ZM46.266 6.688C46.266 6.016 46.402 5.428 46.674 4.924C46.946 4.412 47.318 4.016 47.79 3.736C48.27 3.456 48.802 3.316 49.386 3.316C49.962 3.316 50.462 3.44 50.886 3.688C51.31 3.936 51.626 4.248 51.834 4.624V3.424H52.938V10H51.834V8.776C51.618 9.16 51.294 9.48 50.862 9.736C50.438 9.984 49.942 10.108 49.374 10.108C48.79 10.108 48.262 9.964 47.79 9.676C47.318 9.388 46.946 8.984 46.674 8.464C46.402 7.944 46.266 7.352 46.266 6.688ZM51.834 6.7C51.834 6.204 51.734 5.772 51.534 5.404C51.334 5.036 51.062 4.756 50.718 4.564C50.382 4.364 50.01 4.264 49.602 4.264C49.194 4.264 48.822 4.36 48.486 4.552C48.15 4.744 47.882 5.024 47.682 5.392C47.482 5.76 47.382 6.192 47.382 6.688C47.382 7.192 47.482 7.632 47.682 8.008C47.882 8.376 48.15 8.66 48.486 8.86C48.822 9.052 49.194 9.148 49.602 9.148C50.01 9.148 50.382 9.052 50.718 8.86C51.062 8.66 51.334 8.376 51.534 8.008C51.734 7.632 51.834 7.196 51.834 6.7ZM55.8754 1.12V10H54.7834V1.12H55.8754ZM58.3005 2.356C58.0925 2.356 57.9165 2.284 57.7725 2.14C57.6285 1.996 57.5565 1.82 57.5565 1.612C57.5565 1.404 57.6285 1.228 57.7725 1.084C57.9165 0.94 58.0925 0.868 58.3005 0.868C58.5005 0.868 58.6685 0.94 58.8045 1.084C58.9485 1.228 59.0205 1.404 59.0205 1.612C59.0205 1.82 58.9485 1.996 58.8045 2.14C58.6685 2.284 58.5005 2.356 58.3005 2.356ZM58.8285 3.424V10H57.7365V3.424H58.8285ZM63.8936 3.304C64.6936 3.304 65.3416 3.548 65.8376 4.036C66.3336 4.516 66.5816 5.212 66.5816 6.124V10H65.5016V6.28C65.5016 5.624 65.3376 5.124 65.0096 4.78C64.6816 4.428 64.2336 4.252 63.6656 4.252C63.0896 4.252 62.6296 4.432 62.2856 4.792C61.9496 5.152 61.7816 5.676 61.7816 6.364V10H60.6896V3.424H61.7816V4.36C61.9976 4.024 62.2896 3.764 62.6576 3.58C63.0336 3.396 63.4456 3.304 63.8936 3.304ZM67.9574 6.688C67.9574 6.016 68.0934 5.428 68.3654 4.924C68.6374 4.412 69.0094 4.016 69.4814 3.736C69.9614 3.456 70.4934 3.316 71.0774 3.316C71.6534 3.316 72.1534 3.44 72.5774 3.688C73.0014 3.936 73.3174 4.248 73.5254 4.624V3.424H74.6294V10H73.5254V8.776C73.3094 9.16 72.9854 9.48 72.5534 9.736C72.1294 9.984 71.6334 10.108 71.0654 10.108C70.4814 10.108 69.9534 9.964 69.4814 9.676C69.0094 9.388 68.6374 8.984 68.3654 8.464C68.0934 7.944 67.9574 7.352 67.9574 6.688ZM73.5254 6.7C73.5254 6.204 73.4254 5.772 73.2254 5.404C73.0254 5.036 72.7534 4.756 72.4094 4.564C72.0734 4.364 71.7014 4.264 71.2934 4.264C70.8854 4.264 70.5134 4.36 70.1774 4.552C69.8414 4.744 69.5734 5.024 69.3734 5.392C69.1734 5.76 69.0734 6.192 69.0734 6.688C69.0734 7.192 69.1734 7.632 69.3734 8.008C69.5734 8.376 69.8414 8.66 70.1774 8.86C70.5134 9.052 70.8854 9.148 71.2934 9.148C71.7014 9.148 72.0734 9.052 72.4094 8.86C72.7534 8.66 73.0254 8.376 73.2254 8.008C73.4254 7.632 73.5254 7.196 73.5254 6.7ZM77.6028 8.488L76.2588 11.716H75.5268L76.4028 8.488H77.6028ZM81.6449 5.812C81.6449 4.996 81.8289 4.264 82.1969 3.616C82.5649 2.96 83.0649 2.448 83.6969 2.08C84.3369 1.712 85.0449 1.528 85.8209 1.528C86.7329 1.528 87.5289 1.748 88.2089 2.188C88.8889 2.628 89.3849 3.252 89.6969 4.06H88.3889C88.1569 3.556 87.8209 3.168 87.3809 2.896C86.9489 2.624 86.4289 2.488 85.8209 2.488C85.2369 2.488 84.7129 2.624 84.2489 2.896C83.7849 3.168 83.4209 3.556 83.1569 4.06C82.8929 4.556 82.7609 5.14 82.7609 5.812C82.7609 6.476 82.8929 7.06 83.1569 7.564C83.4209 8.06 83.7849 8.444 84.2489 8.716C84.7129 8.988 85.2369 9.124 85.8209 9.124C86.4289 9.124 86.9489 8.992 87.3809 8.728C87.8209 8.456 88.1569 8.068 88.3889 7.564H89.6969C89.3849 8.364 88.8889 8.984 88.2089 9.424C87.5289 9.856 86.7329 10.072 85.8209 10.072C85.0449 10.072 84.3369 9.892 83.6969 9.532C83.0649 9.164 82.5649 8.656 82.1969 8.008C81.8289 7.36 81.6449 6.628 81.6449 5.812ZM90.9144 6.688C90.9144 6.016 91.0504 5.428 91.3224 4.924C91.5944 4.412 91.9664 4.016 92.4384 3.736C92.9184 3.456 93.4504 3.316 94.0344 3.316C94.6104 3.316 95.1104 3.44 95.5344 3.688C95.9584 3.936 96.2744 4.248 96.4824 4.624V3.424H97.5864V10H96.4824V8.776C96.2664 9.16 95.9424 9.48 95.5104 9.736C95.0864 9.984 94.5904 10.108 94.0224 10.108C93.4384 10.108 92.9104 9.964 92.4384 9.676C91.9664 9.388 91.5944 8.984 91.3224 8.464C91.0504 7.944 90.9144 7.352 90.9144 6.688ZM96.4824 6.7C96.4824 6.204 96.3824 5.772 96.1824 5.404C95.9824 5.036 95.7104 4.756 95.3664 4.564C95.0304 4.364 94.6584 4.264 94.2504 4.264C93.8424 4.264 93.4704 4.36 93.1344 4.552C92.7984 4.744 92.5304 5.024 92.3304 5.392C92.1304 5.76 92.0304 6.192 92.0304 6.688C92.0304 7.192 92.1304 7.632 92.3304 8.008C92.5304 8.376 92.7984 8.66 93.1344 8.86C93.4704 9.052 93.8424 9.148 94.2504 9.148C94.6584 9.148 95.0304 9.052 95.3664 8.86C95.7104 8.66 95.9824 8.376 96.1824 8.008C96.3824 7.632 96.4824 7.196 96.4824 6.7ZM100.524 1.12V10H99.4318V1.12H100.524ZM102.949 2.356C102.741 2.356 102.565 2.284 102.421 2.14C102.277 1.996 102.205 1.82 102.205 1.612C102.205 1.404 102.277 1.228 102.421 1.084C102.565 0.94 102.741 0.868 102.949 0.868C103.149 0.868 103.317 0.94 103.453 1.084C103.597 1.228 103.669 1.404 103.669 1.612C103.669 1.82 103.597 1.996 103.453 2.14C103.317 2.284 103.149 2.356 102.949 2.356ZM103.477 3.424V10H102.385V3.424H103.477ZM108.014 4.324H106.634V10H105.542V4.324H104.69V3.424H105.542V2.956C105.542 2.22 105.73 1.684 106.106 1.348C106.49 1.004 107.102 0.831999 107.942 0.831999V1.744C107.462 1.744 107.122 1.84 106.922 2.032C106.73 2.216 106.634 2.524 106.634 2.956V3.424H108.014V4.324ZM112.155 10.108C111.539 10.108 110.979 9.968 110.475 9.688C109.979 9.408 109.587 9.012 109.299 8.5C109.019 7.98 108.879 7.38 108.879 6.7C108.879 6.028 109.023 5.436 109.311 4.924C109.607 4.404 110.007 4.008 110.511 3.736C111.015 3.456 111.579 3.316 112.203 3.316C112.827 3.316 113.391 3.456 113.895 3.736C114.399 4.008 114.795 4.4 115.083 4.912C115.379 5.424 115.527 6.02 115.527 6.7C115.527 7.38 115.375 7.98 115.071 8.5C114.775 9.012 114.371 9.408 113.859 9.688C113.347 9.968 112.779 10.108 112.155 10.108ZM112.155 9.148C112.547 9.148 112.915 9.056 113.259 8.872C113.603 8.688 113.879 8.412 114.087 8.044C114.303 7.676 114.411 7.228 114.411 6.7C114.411 6.172 114.307 5.724 114.099 5.356C113.891 4.988 113.619 4.716 113.283 4.54C112.947 4.356 112.583 4.264 112.191 4.264C111.791 4.264 111.423 4.356 111.087 4.54C110.759 4.716 110.495 4.988 110.295 5.356C110.095 5.724 109.995 6.172 109.995 6.7C109.995 7.236 110.091 7.688 110.283 8.056C110.483 8.424 110.747 8.7 111.075 8.884C111.403 9.06 111.763 9.148 112.155 9.148ZM118.055 4.492C118.247 4.116 118.519 3.824 118.871 3.616C119.231 3.408 119.667 3.304 120.179 3.304V4.432H119.891C118.667 4.432 118.055 5.096 118.055 6.424V10H116.963V3.424H118.055V4.492ZM124.644 3.304C125.444 3.304 126.092 3.548 126.588 4.036C127.084 4.516 127.332 5.212 127.332 6.124V10H126.252V6.28C126.252 5.624 126.088 5.124 125.76 4.78C125.432 4.428 124.984 4.252 124.416 4.252C123.84 4.252 123.38 4.432 123.036 4.792C122.7 5.152 122.532 5.676 122.532 6.364V10H121.44V3.424H122.532V4.36C122.748 4.024 123.04 3.764 123.408 3.58C123.784 3.396 124.196 3.304 124.644 3.304ZM129.679 2.356C129.471 2.356 129.295 2.284 129.151 2.14C129.007 1.996 128.935 1.82 128.935 1.612C128.935 1.404 129.007 1.228 129.151 1.084C129.295 0.94 129.471 0.868 129.679 0.868C129.879 0.868 130.047 0.94 130.183 1.084C130.327 1.228 130.399 1.404 130.399 1.612C130.399 1.82 130.327 1.996 130.183 2.14C130.047 2.284 129.879 2.356 129.679 2.356ZM130.207 3.424V10H129.115V3.424H130.207ZM131.661 6.688C131.661 6.016 131.797 5.428 132.069 4.924C132.341 4.412 132.713 4.016 133.185 3.736C133.665 3.456 134.197 3.316 134.781 3.316C135.357 3.316 135.857 3.44 136.281 3.688C136.705 3.936 137.021 4.248 137.229 4.624V3.424H138.333V10H137.229V8.776C137.013 9.16 136.689 9.48 136.257 9.736C135.833 9.984 135.337 10.108 134.769 10.108C134.185 10.108 133.657 9.964 133.185 9.676C132.713 9.388 132.341 8.984 132.069 8.464C131.797 7.944 131.661 7.352 131.661 6.688ZM137.229 6.7C137.229 6.204 137.129 5.772 136.929 5.404C136.729 5.036 136.457 4.756 136.113 4.564C135.777 4.364 135.405 4.264 134.997 4.264C134.589 4.264 134.217 4.36 133.881 4.552C133.545 4.744 133.277 5.024 133.077 5.392C132.877 5.76 132.777 6.192 132.777 6.688C132.777 7.192 132.877 7.632 133.077 8.008C133.277 8.376 133.545 8.66 133.881 8.86C134.217 9.052 134.589 9.148 134.997 9.148C135.405 9.148 135.777 9.052 136.113 8.86C136.457 8.66 136.729 8.376 136.929 8.008C137.129 7.632 137.229 7.196 137.229 6.7Z" fill="white"/>
<g clip-path="url(#clip0_1_265)">
<path d="M9.84468 16.0731L15.7901 3.12038C16.4948 1.59271 15.3203 0.528214 13.8299 1.21079L0.861805 7.19959C-0.482791 7.81716 -0.199292 9.72675 1.3316 9.73487L7.14739 9.75113C7.24459 9.75113 7.26079 9.75925 7.26079 9.86489L7.27699 15.6749C7.27699 17.1863 9.18048 17.5195 9.84468 16.0731Z" fill="white"/>
</g>
<defs>
<clipPath id="clip0_1_265">
<rect width="16" height="16" fill="white" transform="translate(0 1)"/>
</clipPath>
</defs>
</svg>
